<svg xmlns="http://www.w3.org/2000/svg" width="980" height="560" viewBox="0 0 980 560">
<rect width="100%" height="100%" fill="white"/>
<style>text{font-family:Arial,sans-serif;fill:#111827}.title{font-size:22px;font-weight:700}.subtitle{font-size:13px;fill:#4b5563}.axis{font-size:12px;fill:#374151}.legend{font-size:13px}.label{font-size:11px;fill:#374151}</style>
<text x="490.0" y="34" text-anchor="middle" class="title">Temporal Request Latency</text>
<text x="490.0" y="56" text-anchor="middle" class="subtitle">Source: temporal_stats.json; 140 requests from 2026-05-06 22:55:27 to 2026-05-06 22:55:41</text>
<text x="24" y="275.0" transform="rotate(-90 24 275.0)" class="axis">latency (ms)</text>
<line x1="82" y1="468.0" x2="938" y2="468.0" stroke="#e5e7eb"/>
<text x="72" y="472.0" text-anchor="end" class="axis">0.00</text>
<line x1="82" y1="390.8" x2="938" y2="390.8" stroke="#e5e7eb"/>
<text x="72" y="394.8" text-anchor="end" class="axis">2.28</text>
<line x1="82" y1="313.6" x2="938" y2="313.6" stroke="#e5e7eb"/>
<text x="72" y="317.6" text-anchor="end" class="axis">4.55</text>
<line x1="82" y1="236.4" x2="938" y2="236.4" stroke="#e5e7eb"/>
<text x="72" y="240.4" text-anchor="end" class="axis">6.83</text>
<line x1="82" y1="159.2" x2="938" y2="159.2" stroke="#e5e7eb"/>
<text x="72" y="163.2" text-anchor="end" class="axis">9.10</text>
<line x1="82" y1="82.0" x2="938" y2="82.0" stroke="#e5e7eb"/>
<text x="72" y="86.0" text-anchor="end" class="axis">11.38</text>
<line x1="82" y1="468" x2="938" y2="468" stroke="#374151"/>
<line x1="82" y1="82" x2="82" y2="468" stroke="#374151"/>
<polyline points="82.0,464.5 88.2,465.0 94.3,465.3 100.5,464.5 106.6,465.3 112.8,456.2 118.9,414.1 125.1,465.1 131.3,465.5 137.4,464.7 143.6,464.3 149.7,465.1 155.9,464.7 162.1,464.9 168.2,465.6 174.4,464.5 180.5,465.5 186.7,465.6 192.8,465.3 199.0,465.3 205.2,465.6 211.3,464.2 217.5,465.3 223.6,465.2 229.8,442.8 236.0,465.6 242.1,464.7 248.3,398.4 254.4,465.7 260.6,273.6 266.7,465.8 272.9,465.7 279.1,465.6 285.2,465.3 291.4,194.6 297.5,465.6 303.7,464.9 309.9,298.1 316.0,132.3 322.2,464.9 328.3,463.7 334.5,465.1 340.6,465.7 346.8,465.6 353.0,464.6 359.1,270.7 365.3,465.7 371.4,465.2 377.6,376.8 383.8,465.5 389.9,465.2 396.1,462.7 402.2,463.9 408.4,464.2 414.5,397.8 420.7,465.5 426.9,465.7 433.0,465.1 439.2,465.5 445.3,465.7 451.5,464.2 457.7,465.7 463.8,464.5 470.0,465.6 476.1,266.0 482.3,465.9 488.4,465.4 494.6,464.9 500.8,465.7 506.9,463.9 513.1,465.9 519.2,349.6 525.4,465.2 531.6,465.0 537.7,465.3 543.9,465.5 550.0,464.9 556.2,465.7 562.3,465.3 568.5,465.6 574.7,289.7 580.8,465.7 587.0,464.6 593.1,401.6 599.3,405.7 605.5,465.4 611.6,464.7 617.8,465.2 623.9,464.1 630.1,465.2 636.2,465.1 642.4,464.8 648.6,465.3 654.7,465.0 660.9,464.8 667.0,465.6 673.2,465.7 679.4,465.4 685.5,465.4 691.7,465.3 697.8,465.5 704.0,401.4 710.1,465.1 716.3,465.3 722.5,463.1 728.6,398.7 734.8,464.8 740.9,465.6 747.1,464.8 753.3,465.4 759.4,465.2 765.6,465.5 771.7,445.8 777.9,465.7 784.0,465.6 790.2,465.6 796.4,465.7 802.5,463.5 808.7,465.8 814.8,465.7 821.0,464.7 827.2,465.7 833.3,464.4 839.5,465.3 845.6,465.7 851.8,464.9 857.9,443.2 864.1,435.9 870.3,464.1 876.4,462.5 882.6,465.2 888.7,465.6 894.9,464.6 901.1,465.0 907.2,464.1 913.4,465.0 919.5,465.6 925.7,352.8 931.8,465.7 938.0,465.7" fill="none" stroke="#2563eb" stroke-width="2.2" opacity="0.85"/>
<circle cx="82.0" cy="464.5" r="2.6" fill="#2563eb" opacity="0.78"/>
<circle cx="88.2" cy="465.0" r="2.6" fill="#2563eb" opacity="0.78"/>
<circle cx="94.3" cy="465.3" r="2.6" fill="#2563eb" opacity="0.78"/>
<circle cx="100.5" cy="464.5" r="2.6" fill="#2563eb" opacity="0.78"/>
<circle cx="106.6" cy="465.3" r="2.6" fill="#2563eb" opacity="0.78"/>
<circle cx="112.8" cy="456.2" r="2.6" fill="#2563eb" opacity="0.78"/>
<circle cx="118.9" cy="414.1" r="2.6" fill="#2563eb" opacity="0.78"/>
<circle cx="125.1" cy="465.1" r="2.6" fill="#2563eb" opacity="0.78"/>
<circle cx="131.3" cy="465.5" r="2.6" fill="#2563eb" opacity="0.78"/>
<circle cx="137.4" cy="464.7" r="2.6" fill="#2563eb" opacity="0.78"/>
<circle cx="143.6" cy="464.3" r="2.6" fill="#2563eb" opacity="0.78"/>
<circle cx="149.7" cy="465.1" r="2.6" fill="#2563eb" opacity="0.78"/>
<circle cx="155.9" cy="464.7" r="2.6" fill="#2563eb" opacity="0.78"/>
<circle cx="162.1" cy="464.9" r="2.6" fill="#2563eb" opacity="0.78"/>
<circle cx="168.2" cy="465.6" r="2.6" fill="#2563eb" opacity="0.78"/>
<circle cx="174.4" cy="464.5" r="2.6" fill="#2563eb" opacity="0.78"/>
<circle cx="180.5" cy="465.5" r="2.6" fill="#2563eb" opacity="0.78"/>
<circle cx="186.7" cy="465.6" r="2.6" fill="#2563eb" opacity="0.78"/>
<circle cx="192.8" cy="465.3" r="2.6" fill="#2563eb" opacity="0.78"/>
<circle cx="199.0" cy="465.3" r="2.6" fill="#2563eb" opacity="0.78"/>
<circle cx="205.2" cy="465.6" r="2.6" fill="#2563eb" opacity="0.78"/>
<circle cx="211.3" cy="464.2" r="2.6" fill="#2563eb" opacity="0.78"/>
<circle cx="217.5" cy="465.3" r="2.6" fill="#2563eb" opacity="0.78"/>
<circle cx="223.6" cy="465.2" r="2.6" fill="#2563eb" opacity="0.78"/>
<circle cx="229.8" cy="442.8" r="2.6" fill="#2563eb" opacity="0.78"/>
<circle cx="236.0" cy="465.6" r="2.6" fill="#2563eb" opacity="0.78"/>
<circle cx="242.1" cy="464.7" r="2.6" fill="#2563eb" opacity="0.78"/>
<circle cx="248.3" cy="398.4" r="2.6" fill="#2563eb" opacity="0.78"/>
<circle cx="254.4" cy="465.7" r="2.6" fill="#2563eb" opacity="0.78"/>
<circle cx="260.6" cy="273.6" r="2.6" fill="#2563eb" opacity="0.78"/>
<circle cx="266.7" cy="465.8" r="2.6" fill="#2563eb" opacity="0.78"/>
<circle cx="272.9" cy="465.7" r="2.6" fill="#2563eb" opacity="0.78"/>
<circle cx="279.1" cy="465.6" r="2.6" fill="#2563eb" opacity="0.78"/>
<circle cx="285.2" cy="465.3" r="2.6" fill="#2563eb" opacity="0.78"/>
<circle cx="291.4" cy="194.6" r="2.6" fill="#2563eb" opacity="0.78"/>
<circle cx="297.5" cy="465.6" r="2.6" fill="#2563eb" opacity="0.78"/>
<circle cx="303.7" cy="464.9" r="2.6" fill="#2563eb" opacity="0.78"/>
<circle cx="309.9" cy="298.1" r="2.6" fill="#2563eb" opacity="0.78"/>
<circle cx="316.0" cy="132.3" r="2.6" fill="#2563eb" opacity="0.78"/>
<circle cx="322.2" cy="464.9" r="2.6" fill="#2563eb" opacity="0.78"/>
<circle cx="328.3" cy="463.7" r="2.6" fill="#2563eb" opacity="0.78"/>
<circle cx="334.5" cy="465.1" r="2.6" fill="#2563eb" opacity="0.78"/>
<circle cx="340.6" cy="465.7" r="2.6" fill="#2563eb" opacity="0.78"/>
<circle cx="346.8" cy="465.6" r="2.6" fill="#2563eb" opacity="0.78"/>
<circle cx="353.0" cy="464.6" r="2.6" fill="#2563eb" opacity="0.78"/>
<circle cx="359.1" cy="270.7" r="2.6" fill="#2563eb" opacity="0.78"/>
<circle cx="365.3" cy="465.7" r="2.6" fill="#2563eb" opacity="0.78"/>
<circle cx="371.4" cy="465.2" r="2.6" fill="#2563eb" opacity="0.78"/>
<circle cx="377.6" cy="376.8" r="2.6" fill="#2563eb" opacity="0.78"/>
<circle cx="383.8" cy="465.5" r="2.6" fill="#2563eb" opacity="0.78"/>
<circle cx="389.9" cy="465.2" r="2.6" fill="#2563eb" opacity="0.78"/>
<circle cx="396.1" cy="462.7" r="2.6" fill="#2563eb" opacity="0.78"/>
<circle cx="402.2" cy="463.9" r="2.6" fill="#2563eb" opacity="0.78"/>
<circle cx="408.4" cy="464.2" r="2.6" fill="#2563eb" opacity="0.78"/>
<circle cx="414.5" cy="397.8" r="2.6" fill="#2563eb" opacity="0.78"/>
<circle cx="420.7" cy="465.5" r="2.6" fill="#2563eb" opacity="0.78"/>
<circle cx="426.9" cy="465.7" r="2.6" fill="#2563eb" opacity="0.78"/>
<circle cx="433.0" cy="465.1" r="2.6" fill="#2563eb" opacity="0.78"/>
<circle cx="439.2" cy="465.5" r="2.6" fill="#2563eb" opacity="0.78"/>
<circle cx="445.3" cy="465.7" r="2.6" fill="#2563eb" opacity="0.78"/>
<circle cx="451.5" cy="464.2" r="2.6" fill="#2563eb" opacity="0.78"/>
<circle cx="457.7" cy="465.7" r="2.6" fill="#2563eb" opacity="0.78"/>
<circle cx="463.8" cy="464.5" r="2.6" fill="#2563eb" opacity="0.78"/>
<circle cx="470.0" cy="465.6" r="2.6" fill="#2563eb" opacity="0.78"/>
<circle cx="476.1" cy="266.0" r="2.6" fill="#2563eb" opacity="0.78"/>
<circle cx="482.3" cy="465.9" r="2.6" fill="#2563eb" opacity="0.78"/>
<circle cx="488.4" cy="465.4" r="2.6" fill="#2563eb" opacity="0.78"/>
<circle cx="494.6" cy="464.9" r="2.6" fill="#2563eb" opacity="0.78"/>
<circle cx="500.8" cy="465.7" r="2.6" fill="#2563eb" opacity="0.78"/>
<circle cx="506.9" cy="463.9" r="2.6" fill="#2563eb" opacity="0.78"/>
<circle cx="513.1" cy="465.9" r="2.6" fill="#2563eb" opacity="0.78"/>
<circle cx="519.2" cy="349.6" r="2.6" fill="#2563eb" opacity="0.78"/>
<circle cx="525.4" cy="465.2" r="2.6" fill="#2563eb" opacity="0.78"/>
<circle cx="531.6" cy="465.0" r="2.6" fill="#2563eb" opacity="0.78"/>
<circle cx="537.7" cy="465.3" r="2.6" fill="#2563eb" opacity="0.78"/>
<circle cx="543.9" cy="465.5" r="2.6" fill="#2563eb" opacity="0.78"/>
<circle cx="550.0" cy="464.9" r="2.6" fill="#2563eb" opacity="0.78"/>
<circle cx="556.2" cy="465.7" r="2.6" fill="#2563eb" opacity="0.78"/>
<circle cx="562.3" cy="465.3" r="2.6" fill="#2563eb" opacity="0.78"/>
<circle cx="568.5" cy="465.6" r="2.6" fill="#2563eb" opacity="0.78"/>
<circle cx="574.7" cy="289.7" r="2.6" fill="#2563eb" opacity="0.78"/>
<circle cx="580.8" cy="465.7" r="2.6" fill="#2563eb" opacity="0.78"/>
<circle cx="587.0" cy="464.6" r="2.6" fill="#2563eb" opacity="0.78"/>
<circle cx="593.1" cy="401.6" r="2.6" fill="#2563eb" opacity="0.78"/>
<circle cx="599.3" cy="405.7" r="2.6" fill="#2563eb" opacity="0.78"/>
<circle cx="605.5" cy="465.4" r="2.6" fill="#2563eb" opacity="0.78"/>
<circle cx="611.6" cy="464.7" r="2.6" fill="#2563eb" opacity="0.78"/>
<circle cx="617.8" cy="465.2" r="2.6" fill="#2563eb" opacity="0.78"/>
<circle cx="623.9" cy="464.1" r="2.6" fill="#2563eb" opacity="0.78"/>
<circle cx="630.1" cy="465.2" r="2.6" fill="#2563eb" opacity="0.78"/>
<circle cx="636.2" cy="465.1" r="2.6" fill="#2563eb" opacity="0.78"/>
<circle cx="642.4" cy="464.8" r="2.6" fill="#2563eb" opacity="0.78"/>
<circle cx="648.6" cy="465.3" r="2.6" fill="#2563eb" opacity="0.78"/>
<circle cx="654.7" cy="465.0" r="2.6" fill="#2563eb" opacity="0.78"/>
<circle cx="660.9" cy="464.8" r="2.6" fill="#2563eb" opacity="0.78"/>
<circle cx="667.0" cy="465.6" r="2.6" fill="#2563eb" opacity="0.78"/>
<circle cx="673.2" cy="465.7" r="2.6" fill="#2563eb" opacity="0.78"/>
<circle cx="679.4" cy="465.4" r="2.6" fill="#2563eb" opacity="0.78"/>
<circle cx="685.5" cy="465.4" r="2.6" fill="#2563eb" opacity="0.78"/>
<circle cx="691.7" cy="465.3" r="2.6" fill="#2563eb" opacity="0.78"/>
<circle cx="697.8" cy="465.5" r="2.6" fill="#2563eb" opacity="0.78"/>
<circle cx="704.0" cy="401.4" r="2.6" fill="#2563eb" opacity="0.78"/>
<circle cx="710.1" cy="465.1" r="2.6" fill="#2563eb" opacity="0.78"/>
<circle cx="716.3" cy="465.3" r="2.6" fill="#2563eb" opacity="0.78"/>
<circle cx="722.5" cy="463.1" r="2.6" fill="#2563eb" opacity="0.78"/>
<circle cx="728.6" cy="398.7" r="2.6" fill="#2563eb" opacity="0.78"/>
<circle cx="734.8" cy="464.8" r="2.6" fill="#2563eb" opacity="0.78"/>
<circle cx="740.9" cy="465.6" r="2.6" fill="#2563eb" opacity="0.78"/>
<circle cx="747.1" cy="464.8" r="2.6" fill="#2563eb" opacity="0.78"/>
<circle cx="753.3" cy="465.4" r="2.6" fill="#2563eb" opacity="0.78"/>
<circle cx="759.4" cy="465.2" r="2.6" fill="#2563eb" opacity="0.78"/>
<circle cx="765.6" cy="465.5" r="2.6" fill="#2563eb" opacity="0.78"/>
<circle cx="771.7" cy="445.8" r="2.6" fill="#2563eb" opacity="0.78"/>
<circle cx="777.9" cy="465.7" r="2.6" fill="#2563eb" opacity="0.78"/>
<circle cx="784.0" cy="465.6" r="2.6" fill="#2563eb" opacity="0.78"/>
<circle cx="790.2" cy="465.6" r="2.6" fill="#2563eb" opacity="0.78"/>
<circle cx="796.4" cy="465.7" r="2.6" fill="#2563eb" opacity="0.78"/>
<circle cx="802.5" cy="463.5" r="2.6" fill="#2563eb" opacity="0.78"/>
<circle cx="808.7" cy="465.8" r="2.6" fill="#2563eb" opacity="0.78"/>
<circle cx="814.8" cy="465.7" r="2.6" fill="#2563eb" opacity="0.78"/>
<circle cx="821.0" cy="464.7" r="2.6" fill="#2563eb" opacity="0.78"/>
<circle cx="827.2" cy="465.7" r="2.6" fill="#2563eb" opacity="0.78"/>
<circle cx="833.3" cy="464.4" r="2.6" fill="#2563eb" opacity="0.78"/>
<circle cx="839.5" cy="465.3" r="2.6" fill="#2563eb" opacity="0.78"/>
<circle cx="845.6" cy="465.7" r="2.6" fill="#2563eb" opacity="0.78"/>
<circle cx="851.8" cy="464.9" r="2.6" fill="#2563eb" opacity="0.78"/>
<circle cx="857.9" cy="443.2" r="2.6" fill="#2563eb" opacity="0.78"/>
<circle cx="864.1" cy="435.9" r="2.6" fill="#2563eb" opacity="0.78"/>
<circle cx="870.3" cy="464.1" r="2.6" fill="#2563eb" opacity="0.78"/>
<circle cx="876.4" cy="462.5" r="2.6" fill="#2563eb" opacity="0.78"/>
<circle cx="882.6" cy="465.2" r="2.6" fill="#2563eb" opacity="0.78"/>
<circle cx="888.7" cy="465.6" r="2.6" fill="#2563eb" opacity="0.78"/>
<circle cx="894.9" cy="464.6" r="2.6" fill="#2563eb" opacity="0.78"/>
<circle cx="901.1" cy="465.0" r="2.6" fill="#2563eb" opacity="0.78"/>
<circle cx="907.2" cy="464.1" r="2.6" fill="#2563eb" opacity="0.78"/>
<circle cx="913.4" cy="465.0" r="2.6" fill="#2563eb" opacity="0.78"/>
<circle cx="919.5" cy="465.6" r="2.6" fill="#2563eb" opacity="0.78"/>
<circle cx="925.7" cy="352.8" r="2.6" fill="#2563eb" opacity="0.78"/>
<circle cx="931.8" cy="465.7" r="2.6" fill="#2563eb" opacity="0.78"/>
<circle cx="938.0" cy="465.7" r="2.6" fill="#2563eb" opacity="0.78"/>
<text x="82.0" y="508" text-anchor="middle" class="axis">1</text>
<text x="254.4" y="508" text-anchor="middle" class="axis">29</text>
<text x="426.9" y="508" text-anchor="middle" class="axis">57</text>
<text x="593.1" y="508" text-anchor="middle" class="axis">84</text>
<text x="765.6" y="508" text-anchor="middle" class="axis">112</text>
<text x="938.0" y="508" text-anchor="middle" class="axis">140</text>
<text x="510.0" y="536" text-anchor="middle" class="axis">request sequence</text>
<circle cx="82" cy="537" r="6" fill="#2563eb"/>
<text x="96" y="542" class="legend">worker_1</text>
</svg>