<svg xmlns="http://www.w3.org/2000/svg" width="980" height="560" viewBox="0 0 980 560">
<rect width="100%" height="100%" fill="white"/>
<style>text{font-family:Arial,sans-serif;fill:#111827}.title{font-size:22px;font-weight:700}.axis{font-size:12px}.legend{font-size:13px}.label{font-size:12px}</style>
<text x="490.0" y="35" text-anchor="middle" class="title">2-Worker Metric Sample Counts</text>
<text x="24" y="257.5" transform="rotate(-90 24 257.5)" class="axis">sample count</text>
<line x1="86" y1="445.0" x2="945" y2="445.0" stroke="#e5e7eb"/>
<text x="76" y="449.0" text-anchor="end" class="axis">0.0</text>
<line x1="86" y1="370.0" x2="945" y2="370.0" stroke="#e5e7eb"/>
<text x="76" y="374.0" text-anchor="end" class="axis">217.1</text>
<line x1="86" y1="295.0" x2="945" y2="295.0" stroke="#e5e7eb"/>
<text x="76" y="299.0" text-anchor="end" class="axis">434.2</text>
<line x1="86" y1="220.0" x2="945" y2="220.0" stroke="#e5e7eb"/>
<text x="76" y="224.0" text-anchor="end" class="axis">651.4</text>
<line x1="86" y1="145.0" x2="945" y2="145.0" stroke="#e5e7eb"/>
<text x="76" y="149.0" text-anchor="end" class="axis">868.5</text>
<line x1="86" y1="70.0" x2="945" y2="70.0" stroke="#e5e7eb"/>
<text x="76" y="74.0" text-anchor="end" class="axis">1085.6</text>
<line x1="86" y1="445" x2="945" y2="445" stroke="#374151"/>
<line x1="86" y1="70" x2="86" y2="445" stroke="#374151"/>
<rect x="151.4" y="370.4" width="160.6" height="74.6" fill="#2563eb"/>
<text x="231.7" y="365.4" text-anchor="middle" class="label">216.0</text>
<rect x="580.9" y="127.2" width="160.6" height="317.8" fill="#2563eb"/>
<text x="661.2" y="122.2" text-anchor="middle" class="label">920.0</text>
<text x="300.8" y="490" text-anchor="middle" class="axis">worker_1</text>
<text x="730.2" y="490" text-anchor="middle" class="axis">worker_2</text>
<rect x="86" y="534" width="16" height="16" fill="#2563eb"/>
<text x="109" y="547" class="legend">Samples</text>
</svg>