<svg xmlns="http://www.w3.org/2000/svg" width="980" height="560" viewBox="0 0 980 560">
<rect width="100%" height="100%" fill="white"/>
<style>text{font-family:Arial,sans-serif;fill:#111827}.title{font-size:22px;font-weight:700}.axis{font-size:12px}.legend{font-size:13px}.label{font-size:12px}</style>
<text x="490.0" y="35" text-anchor="middle" class="title">Network Utilization: Existing 1 Worker vs New 2 Worker</text>
<text x="24" y="257.5" transform="rotate(-90 24 257.5)" class="axis">Mbps</text>
<line x1="86" y1="445.0" x2="945" y2="445.0" stroke="#e5e7eb"/>
<text x="76" y="449.0" text-anchor="end" class="axis">0.0</text>
<line x1="86" y1="370.0" x2="945" y2="370.0" stroke="#e5e7eb"/>
<text x="76" y="374.0" text-anchor="end" class="axis">0.0</text>
<line x1="86" y1="295.0" x2="945" y2="295.0" stroke="#e5e7eb"/>
<text x="76" y="299.0" text-anchor="end" class="axis">0.1</text>
<line x1="86" y1="220.0" x2="945" y2="220.0" stroke="#e5e7eb"/>
<text x="76" y="224.0" text-anchor="end" class="axis">0.1</text>
<line x1="86" y1="145.0" x2="945" y2="145.0" stroke="#e5e7eb"/>
<text x="76" y="149.0" text-anchor="end" class="axis">0.2</text>
<line x1="86" y1="70.0" x2="945" y2="70.0" stroke="#e5e7eb"/>
<text x="76" y="74.0" text-anchor="end" class="axis">0.2</text>
<line x1="86" y1="445" x2="945" y2="445" stroke="#374151"/>
<line x1="86" y1="70" x2="86" y2="445" stroke="#374151"/>
<rect x="108.8" y="426.7" width="56.0" height="18.3" fill="#2563eb"/>
<text x="136.8" y="421.7" text-anchor="middle" class="label">0.0</text>
<rect x="323.5" y="445.0" width="56.0" height="0.0" fill="#2563eb"/>
<text x="351.5" y="440.0" text-anchor="middle" class="label">0.0</text>
<rect x="538.3" y="295.1" width="56.0" height="149.9" fill="#2563eb"/>
<text x="566.3" y="290.1" text-anchor="middle" class="label">0.1</text>
<rect x="753.0" y="248.5" width="56.0" height="196.5" fill="#2563eb"/>
<text x="781.0" y="243.5" text-anchor="middle" class="label">0.1</text>
<rect x="173.9" y="426.7" width="56.0" height="18.3" fill="#f97316"/>
<text x="201.8" y="421.7" text-anchor="middle" class="label">0.0</text>
<rect x="388.6" y="445.0" width="56.0" height="0.0" fill="#f97316"/>
<text x="416.6" y="440.0" text-anchor="middle" class="label">0.0</text>
<rect x="603.4" y="195.7" width="56.0" height="249.3" fill="#f97316"/>
<text x="631.3" y="190.7" text-anchor="middle" class="label">0.2</text>
<rect x="818.1" y="127.2" width="56.0" height="317.8" fill="#f97316"/>
<text x="846.1" y="122.2" text-anchor="middle" class="label">0.2</text>
<text x="193.4" y="490" text-anchor="middle" class="axis">existing 1 worker broker</text>
<text x="408.1" y="490" text-anchor="middle" class="axis">existing 1 worker worker_1</text>
<text x="622.9" y="490" text-anchor="middle" class="axis">new 2 worker worker_1</text>
<text x="837.6" y="490" text-anchor="middle" class="axis">new 2 worker worker_2</text>
<rect x="86" y="534" width="16" height="16" fill="#2563eb"/>
<text x="109" y="547" class="legend">Receive</text>
<rect x="276" y="534" width="16" height="16" fill="#f97316"/>
<text x="299" y="547" class="legend">Send</text>
</svg>