<svg xmlns="http://www.w3.org/2000/svg" width="980" height="560" viewBox="0 0 980 560">
<rect width="100%" height="100%" fill="white"/>
<style>text{font-family:Arial,sans-serif;fill:#111827}.title{font-size:22px;font-weight:700}.axis{font-size:12px}.legend{font-size:13px}.label{font-size:12px}</style>
<text x="490.0" y="35" text-anchor="middle" class="title">2-Worker CPU Utilization Over Time</text>
<text x="24" y="272.5" transform="rotate(-90 24 272.5)" class="axis">CPU percent</text>
<line x1="85" y1="475.0" x2="945" y2="475.0" stroke="#e5e7eb"/>
<text x="75" y="479.0" text-anchor="end" class="axis">0.0</text>
<line x1="85" y1="394.0" x2="945" y2="394.0" stroke="#e5e7eb"/>
<text x="75" y="398.0" text-anchor="end" class="axis">1.1</text>
<line x1="85" y1="313.0" x2="945" y2="313.0" stroke="#e5e7eb"/>
<text x="75" y="317.0" text-anchor="end" class="axis">2.2</text>
<line x1="85" y1="232.0" x2="945" y2="232.0" stroke="#e5e7eb"/>
<text x="75" y="236.0" text-anchor="end" class="axis">3.3</text>
<line x1="85" y1="151.0" x2="945" y2="151.0" stroke="#e5e7eb"/>
<text x="75" y="155.0" text-anchor="end" class="axis">4.3</text>
<line x1="85" y1="70.0" x2="945" y2="70.0" stroke="#e5e7eb"/>
<text x="75" y="74.0" text-anchor="end" class="axis">5.4</text>
<line x1="85" y1="475" x2="945" y2="475" stroke="#374151"/>
<line x1="85" y1="70" x2="85" y2="475" stroke="#374151"/>
<polyline points="85.0,400.4 85.0,400.4 85.0,400.4 85.0,400.4 85.0,400.4 85.0,400.4 85.0,400.4 85.0,400.4 85.0,400.4 85.0,400.4 85.0,400.4 85.0,400.4 85.0,400.4 85.0,400.4 85.0,400.4 85.0,400.4 85.0,400.4 85.0,400.4 85.0,400.4 85.0,400.4 119.4,139.2 119.4,139.2 119.4,139.2 119.4,139.2 119.4,139.2 119.4,139.2 119.4,139.2 119.4,139.2 119.4,139.2 119.4,139.2 119.4,139.2 119.4,139.2 119.4,139.2 119.4,139.2 119.4,139.2 119.4,139.2 119.4,139.2 119.4,139.2 119.4,139.2 119.4,139.2 119.4,139.2 119.4,139.2 119.4,139.2 119.4,139.2 119.4,139.2 119.4,139.2 119.4,139.2 119.4,139.2 119.4,139.2 119.4,139.2 119.4,139.2 119.4,139.2 119.4,139.2 119.4,139.2 119.4,139.2 119.4,139.2 119.4,139.2 119.4,139.2 119.4,139.2 119.4,139.2 119.4,139.2 119.4,139.2 119.4,139.2 119.4,139.2 119.4,139.2 119.4,139.2 119.4,139.2 119.4,139.2 119.4,139.2 119.4,139.2 119.4,139.2 119.4,139.2 119.4,139.2 119.4,139.2 119.4,139.2 119.4,139.2 119.4,139.2 119.4,139.2 119.4,139.2 119.4,139.2 876.2,400.4 876.2,400.4 876.2,400.4 876.2,400.4 876.2,400.4 876.2,400.4 876.2,400.4 876.2,400.4 876.2,400.4 876.2,400.4 876.2,400.4 876.2,400.4 876.2,400.4 876.2,400.4 876.2,400.4 876.2,400.4 876.2,400.4 876.2,400.4 876.2,400.4 876.2,400.4 876.2,400.4 876.2,400.4 876.2,400.4 876.2,400.4 876.2,400.4 876.2,400.4 876.2,400.4 876.2,400.4 876.2,400.4 876.2,400.4 876.2,400.4 876.2,400.4 876.2,400.4 876.2,400.4 876.2,400.4 876.2,400.4 910.6,325.8 910.6,325.8 910.6,325.8 910.6,325.8 910.6,325.8 910.6,325.8 910.6,325.8 910.6,325.8 910.6,325.8 910.6,325.8 910.6,325.8 910.6,325.8 910.6,325.8 910.6,325.8 910.6,325.8 910.6,325.8 910.6,325.8 910.6,325.8 910.6,325.8 910.6,325.8 910.6,325.8 910.6,325.8 910.6,325.8 910.6,325.8 910.6,325.8 910.6,325.8 910.6,325.8 910.6,325.8 910.6,325.8 910.6,325.8 910.6,325.8 910.6,325.8 910.6,325.8 910.6,325.8 910.6,325.8 910.6,325.8 910.6,325.8 910.6,325.8 910.6,325.8 910.6,325.8 910.6,325.8 910.6,325.8 910.6,325.8 910.6,325.8 910.6,325.8 910.6,325.8 910.6,325.8 910.6,325.8 910.6,325.8 910.6,325.8 910.6,325.8 910.6,325.8 910.6,325.8 910.6,325.8 910.6,325.8 910.6,325.8 910.6,325.8 910.6,325.8 910.6,325.8 910.6,325.8 910.6,325.8 910.6,325.8 910.6,325.8 910.6,325.8 910.6,325.8 910.6,325.8 910.6,325.8 910.6,325.8 910.6,325.8 910.6,325.8 910.6,325.8 910.6,325.8 910.6,325.8 910.6,325.8 910.6,325.8 910.6,325.8 910.6,325.8 910.6,325.8 910.6,325.8 910.6,325.8 945.0,251.2 945.0,251.2 945.0,251.2 945.0,251.2 945.0,251.2 945.0,251.2 945.0,251.2 945.0,251.2 945.0,251.2 945.0,251.2 945.0,251.2 945.0,251.2 945.0,251.2 945.0,251.2 945.0,251.2 945.0,251.2 945.0,251.2 945.0,251.2 945.0,251.2 945.0,251.2" fill="none" stroke="#2563eb" stroke-width="2.5"/>
<rect x="85" y="534" width="16" height="16" fill="#2563eb"/>
<text x="108" y="547" class="legend">worker_1</text>
<polyline points="136.6,400.4 136.6,400.4 136.6,400.4 136.6,400.4 136.6,400.4 136.6,400.4 136.6,400.4 136.6,400.4 136.6,400.4 136.6,400.4 136.6,400.4 136.6,400.4 136.6,400.4 136.6,400.4 136.6,400.4 136.6,400.4 136.6,400.4 136.6,400.4 136.6,400.4 136.6,400.4 136.6,400.4 136.6,400.4 136.6,400.4 136.6,400.4 136.6,400.4 136.6,400.4 136.6,400.4 136.6,400.4 136.6,400.4 136.6,400.4 136.6,400.4 136.6,400.4 136.6,400.4 136.6,400.4 136.6,400.4 136.6,400.4 136.6,400.4 136.6,400.4 136.6,400.4 136.6,400.4 136.6,400.4 136.6,400.4 136.6,400.4 136.6,400.4 136.6,400.4 136.6,400.4 136.6,400.4 136.6,400.4 136.6,400.4 136.6,400.4 136.6,400.4 136.6,400.4 136.6,400.4 136.6,400.4 136.6,400.4 136.6,400.4 136.6,400.4 136.6,400.4 136.6,400.4 136.6,400.4 136.6,400.4 136.6,400.4 136.6,400.4 136.6,400.4 136.6,400.4 136.6,400.4 136.6,400.4 136.6,400.4 136.6,400.4 136.6,400.4 136.6,400.4 136.6,400.4 136.6,400.4 136.6,400.4 136.6,400.4 136.6,400.4 136.6,400.4 136.6,400.4 136.6,400.4 136.6,400.4 136.6,400.4 136.6,400.4 136.6,400.4 136.6,400.4 136.6,400.4 136.6,400.4 136.6,400.4 136.6,400.4 136.6,400.4 136.6,400.4 136.6,400.4 136.6,400.4 136.6,400.4 136.6,400.4 136.6,400.4 136.6,400.4 136.6,400.4 136.6,400.4 136.6,400.4 136.6,400.4 136.6,400.4 136.6,400.4 136.6,400.4 136.6,400.4 136.6,400.4 136.6,400.4 136.6,400.4 136.6,400.4 136.6,400.4 136.6,400.4 136.6,400.4 136.6,400.4 136.6,400.4 136.6,400.4 136.6,400.4 136.6,400.4 136.6,400.4 136.6,400.4 136.6,400.4 136.6,400.4 136.6,400.4 136.6,400.4 136.6,400.4 136.6,400.4 136.6,400.4 136.6,400.4 136.6,400.4 136.6,400.4 136.6,400.4 136.6,400.4 136.6,400.4 136.6,400.4 136.6,400.4 136.6,400.4 136.6,400.4 136.6,400.4 136.6,400.4 136.6,400.4 136.6,400.4 136.6,400.4 171.0,206.4 171.0,206.4 171.0,206.4 171.0,206.4 171.0,206.4 171.0,206.4 171.0,206.4 171.0,206.4 171.0,206.4 171.0,206.4 171.0,206.4 171.0,206.4 171.0,206.4 171.0,206.4 171.0,206.4 171.0,206.4 171.0,206.4 171.0,206.4 171.0,206.4 171.0,206.4 171.0,206.4 171.0,206.4 171.0,206.4 171.0,206.4 171.0,206.4 171.0,206.4 171.0,206.4 171.0,206.4 171.0,206.4 171.0,206.4 171.0,206.4 171.0,206.4 171.0,206.4 171.0,206.4 171.0,206.4 171.0,206.4 171.0,206.4 171.0,206.4 171.0,206.4 171.0,206.4 171.0,206.4 171.0,206.4 171.0,206.4 171.0,206.4 171.0,206.4 171.0,206.4 171.0,206.4 171.0,206.4 171.0,206.4 171.0,206.4 171.0,206.4 171.0,206.4 171.0,206.4 171.0,206.4 171.0,206.4 171.0,206.4 171.0,206.4 171.0,206.4 171.0,206.4 171.0,206.4 171.0,206.4 171.0,206.4 171.0,206.4 171.0,206.4 171.0,206.4 171.0,206.4 171.0,206.4 171.0,206.4 171.0,206.4 171.0,206.4 171.0,206.4 171.0,206.4 171.0,206.4 171.0,206.4 171.0,206.4 171.0,206.4 171.0,206.4 171.0,206.4 171.0,206.4 171.0,206.4 171.0,206.4 171.0,206.4 171.0,206.4 171.0,206.4 171.0,206.4 171.0,206.4 171.0,206.4 171.0,206.4 171.0,206.4 171.0,206.4 171.0,206.4 171.0,206.4 171.0,206.4 171.0,206.4 171.0,206.4 171.0,206.4 171.0,206.4 171.0,206.4 171.0,206.4 171.0,206.4 171.0,206.4 171.0,206.4 171.0,206.4 171.0,206.4 171.0,206.4 171.0,206.4 171.0,206.4 171.0,206.4 171.0,206.4 171.0,206.4 171.0,206.4 171.0,206.4 171.0,206.4 171.0,206.4 171.0,206.4 171.0,206.4 171.0,206.4 171.0,206.4 171.0,206.4 171.0,206.4 205.4,131.8 205.4,131.8 205.4,131.8 205.4,131.8 205.4,131.8 205.4,131.8 205.4,131.8 205.4,131.8 205.4,131.8 205.4,131.8 205.4,131.8 205.4,131.8 205.4,131.8 205.4,131.8 205.4,131.8 205.4,131.8 205.4,131.8 205.4,131.8 205.4,131.8 205.4,131.8 205.4,131.8 205.4,131.8 205.4,131.8 205.4,131.8 205.4,131.8 205.4,131.8 205.4,131.8 205.4,131.8 205.4,131.8 205.4,131.8 205.4,131.8 205.4,131.8 205.4,131.8 205.4,131.8 205.4,131.8 205.4,131.8 205.4,131.8 205.4,131.8 205.4,131.8 205.4,131.8 205.4,131.8 205.4,131.8 205.4,131.8 205.4,131.8 205.4,131.8 205.4,131.8 205.4,131.8 205.4,131.8 205.4,131.8 205.4,131.8 205.4,131.8 205.4,131.8 205.4,131.8 205.4,131.8 205.4,131.8 205.4,131.8 205.4,131.8 205.4,131.8 205.4,131.8 205.4,131.8 205.4,131.8 205.4,131.8 205.4,131.8 205.4,131.8 205.4,131.8 205.4,131.8 205.4,131.8 205.4,131.8 205.4,131.8 205.4,131.8 205.4,131.8 205.4,131.8 205.4,131.8 205.4,131.8 205.4,131.8 205.4,131.8 205.4,131.8 205.4,131.8 205.4,131.8 205.4,131.8 205.4,131.8 205.4,131.8 205.4,131.8 205.4,131.8 205.4,131.8 205.4,131.8 205.4,131.8 205.4,131.8 205.4,131.8 205.4,131.8 205.4,131.8 205.4,131.8 205.4,131.8 205.4,131.8 205.4,131.8 205.4,131.8 205.4,131.8 205.4,131.8 205.4,131.8 205.4,131.8 205.4,131.8 205.4,131.8 205.4,131.8 205.4,131.8 205.4,131.8 205.4,131.8 205.4,131.8 205.4,131.8 205.4,131.8 205.4,131.8 205.4,131.8 205.4,131.8 205.4,131.8 205.4,131.8 205.4,131.8 205.4,131.8 205.4,131.8 205.4,131.8 205.4,131.8 205.4,131.8 239.8,176.5 239.8,176.5 239.8,176.5 239.8,176.5 239.8,176.5 239.8,176.5 239.8,176.5 239.8,176.5 239.8,176.5 239.8,176.5 239.8,176.5 239.8,176.5 239.8,176.5 239.8,176.5 239.8,176.5 239.8,176.5 239.8,176.5 239.8,176.5 239.8,176.5 239.8,176.5 239.8,176.5 239.8,176.5 239.8,176.5 239.8,176.5 239.8,176.5 239.8,176.5 239.8,176.5 239.8,176.5 239.8,176.5 239.8,176.5 239.8,176.5 239.8,176.5 239.8,176.5 239.8,176.5 239.8,176.5 239.8,176.5 239.8,176.5 239.8,176.5 239.8,176.5 239.8,176.5 239.8,176.5 239.8,176.5 239.8,176.5 239.8,176.5 239.8,176.5 239.8,176.5 239.8,176.5 239.8,176.5 239.8,176.5 239.8,176.5 239.8,176.5 239.8,176.5 239.8,176.5 239.8,176.5 239.8,176.5 239.8,176.5 239.8,176.5 239.8,176.5 239.8,176.5 239.8,176.5 239.8,176.5 239.8,176.5 239.8,176.5 239.8,176.5 239.8,176.5 239.8,176.5 239.8,176.5 239.8,176.5 239.8,176.5 239.8,176.5 239.8,176.5 239.8,176.5 239.8,176.5 239.8,176.5 239.8,176.5 239.8,176.5 239.8,176.5 239.8,176.5 239.8,176.5 239.8,176.5 239.8,176.5 239.8,176.5 239.8,176.5 239.8,176.5 239.8,176.5 239.8,176.5 239.8,176.5 239.8,176.5 239.8,176.5 239.8,176.5 239.8,176.5 239.8,176.5 239.8,176.5 239.8,176.5 239.8,176.5 239.8,176.5 239.8,176.5 239.8,176.5 239.8,176.5 239.8,176.5 239.8,176.5 239.8,176.5 239.8,176.5 239.8,176.5 239.8,176.5 239.8,176.5 239.8,176.5 239.8,176.5 239.8,176.5 239.8,176.5 274.2,213.9 274.2,213.9 274.2,213.9 274.2,213.9 274.2,213.9 274.2,213.9 274.2,213.9 274.2,213.9 274.2,213.9 274.2,213.9 274.2,213.9 274.2,213.9 274.2,213.9 274.2,213.9 274.2,213.9 274.2,213.9 274.2,213.9 274.2,213.9 274.2,213.9 274.2,213.9 274.2,213.9 274.2,213.9 274.2,213.9 274.2,213.9 274.2,213.9 274.2,213.9 274.2,213.9 274.2,213.9 274.2,213.9 274.2,213.9 274.2,213.9 274.2,213.9 274.2,213.9 274.2,213.9 274.2,213.9 274.2,213.9 274.2,213.9 274.2,213.9 274.2,213.9 274.2,213.9 274.2,213.9 274.2,213.9 274.2,213.9 274.2,213.9 274.2,213.9 274.2,213.9 274.2,213.9 274.2,213.9 274.2,213.9 274.2,213.9 274.2,213.9 274.2,213.9 274.2,213.9 274.2,213.9 274.2,213.9 274.2,213.9 274.2,213.9 274.2,213.9 274.2,213.9 274.2,213.9 274.2,213.9 274.2,213.9 274.2,213.9 274.2,213.9 274.2,213.9 274.2,213.9 274.2,213.9 274.2,213.9 274.2,213.9 274.2,213.9 274.2,213.9 274.2,213.9 274.2,213.9 274.2,213.9 274.2,213.9 274.2,213.9 274.2,213.9 274.2,213.9 274.2,213.9 274.2,213.9 274.2,213.9 274.2,213.9 274.2,213.9 274.2,213.9 274.2,213.9 274.2,213.9 274.2,213.9 274.2,213.9 274.2,213.9 274.2,213.9 274.2,213.9 274.2,213.9 274.2,213.9 274.2,213.9 274.2,213.9 274.2,213.9 274.2,213.9 274.2,213.9 274.2,213.9 274.2,213.9 274.2,213.9 274.2,213.9 274.2,213.9 274.2,213.9 274.2,213.9 274.2,213.9 274.2,213.9 274.2,213.9 274.2,213.9 274.2,213.9 308.6,213.9 308.6,213.9 308.6,213.9 308.6,213.9 308.6,213.9 308.6,213.9 308.6,213.9 308.6,213.9 308.6,213.9 308.6,213.9 308.6,213.9 308.6,213.9 308.6,213.9 308.6,213.9 308.6,213.9 308.6,213.9 308.6,213.9 308.6,213.9 308.6,213.9 308.6,213.9 308.6,213.9 308.6,213.9 308.6,213.9 308.6,213.9 308.6,213.9 308.6,213.9 308.6,213.9 308.6,213.9 308.6,213.9 308.6,213.9 308.6,213.9 308.6,213.9 308.6,213.9 308.6,213.9 308.6,213.9 308.6,213.9 308.6,213.9 308.6,213.9 308.6,213.9 308.6,213.9 308.6,213.9 308.6,213.9 308.6,213.9 308.6,213.9 308.6,213.9 308.6,213.9 308.6,213.9 308.6,213.9 308.6,213.9 308.6,213.9 308.6,213.9 308.6,213.9 308.6,213.9 308.6,213.9 308.6,213.9 308.6,213.9 308.6,213.9 308.6,213.9 308.6,213.9 308.6,213.9 308.6,213.9 308.6,213.9 308.6,213.9 308.6,213.9 308.6,213.9 308.6,213.9 308.6,213.9 308.6,213.9 308.6,213.9 308.6,213.9 308.6,213.9 308.6,213.9 308.6,213.9 308.6,213.9 308.6,213.9 308.6,213.9 308.6,213.9 308.6,213.9 308.6,213.9 308.6,213.9 308.6,213.9 308.6,213.9 308.6,213.9 308.6,213.9 308.6,213.9 308.6,213.9 308.6,213.9 308.6,213.9 308.6,213.9 308.6,213.9 308.6,213.9 308.6,213.9 308.6,213.9 308.6,213.9 308.6,213.9 308.6,213.9 308.6,213.9 308.6,213.9 308.6,213.9 308.6,213.9 308.6,213.9 308.6,213.9 308.6,213.9 308.6,213.9 308.6,213.9 308.6,213.9 308.6,213.9 308.6,213.9 308.6,213.9 308.6,213.9 308.6,213.9 308.6,213.9 308.6,213.9 308.6,213.9 308.6,213.9 308.6,213.9 308.6,213.9 308.6,213.9 308.6,213.9 308.6,213.9 343.0,176.5 343.0,176.5 343.0,176.5 343.0,176.5 343.0,176.5 343.0,176.5 343.0,176.5 343.0,176.5 343.0,176.5 343.0,176.5 343.0,176.5 343.0,176.5 343.0,176.5 343.0,176.5 343.0,176.5 343.0,176.5 343.0,176.5 343.0,176.5 343.0,176.5 343.0,176.5 343.0,176.5 343.0,176.5 343.0,176.5 343.0,176.5 343.0,176.5 343.0,176.5 343.0,176.5 343.0,176.5 343.0,176.5 343.0,176.5 343.0,176.5 343.0,176.5 343.0,176.5 343.0,176.5 343.0,176.5 343.0,176.5 343.0,176.5 343.0,176.5 343.0,176.5 343.0,176.5 343.0,176.5 343.0,176.5 343.0,176.5 343.0,176.5 343.0,176.5 343.0,176.5 343.0,176.5 343.0,176.5 343.0,176.5 343.0,176.5 343.0,176.5 343.0,176.5 343.0,176.5 343.0,176.5 343.0,176.5 343.0,176.5 343.0,176.5 343.0,176.5 343.0,176.5 343.0,176.5 343.0,176.5 343.0,176.5 343.0,176.5 343.0,176.5 343.0,176.5 343.0,176.5 343.0,176.5 343.0,176.5 343.0,176.5 343.0,176.5 343.0,176.5 343.0,176.5 343.0,176.5 343.0,176.5 343.0,176.5 343.0,176.5 343.0,176.5 343.0,176.5 343.0,176.5 343.0,176.5 343.0,176.5 343.0,176.5 343.0,176.5 343.0,176.5 343.0,176.5 343.0,176.5 343.0,176.5 343.0,176.5 343.0,176.5 343.0,176.5 343.0,176.5 343.0,176.5 343.0,176.5 343.0,176.5 343.0,176.5 343.0,176.5 343.0,176.5 343.0,176.5 343.0,176.5 343.0,176.5 377.4,176.5 377.4,176.5 377.4,176.5 377.4,176.5 377.4,176.5 377.4,176.5 377.4,176.5 377.4,176.5 377.4,176.5 377.4,176.5 377.4,176.5 377.4,176.5 377.4,176.5 377.4,176.5 377.4,176.5 377.4,176.5 377.4,176.5 377.4,176.5 377.4,176.5 377.4,176.5 377.4,176.5 377.4,176.5 377.4,176.5 377.4,176.5 377.4,176.5 377.4,176.5 377.4,176.5 377.4,176.5 377.4,176.5 377.4,176.5 377.4,176.5 377.4,176.5 377.4,176.5 377.4,176.5 377.4,176.5 377.4,176.5 377.4,176.5 377.4,176.5 377.4,176.5 377.4,176.5 377.4,176.5 377.4,176.5 377.4,176.5 377.4,176.5 377.4,176.5 377.4,176.5 377.4,176.5 377.4,176.5 377.4,176.5 377.4,176.5 377.4,176.5 377.4,176.5 377.4,176.5 377.4,176.5 377.4,176.5 377.4,176.5 377.4,176.5 377.4,176.5 377.4,176.5 377.4,176.5 377.4,176.5 377.4,176.5 377.4,176.5 377.4,176.5 377.4,176.5 377.4,176.5 377.4,176.5 377.4,176.5 377.4,176.5 377.4,176.5 377.4,176.5 377.4,176.5 377.4,176.5 377.4,176.5 377.4,176.5 377.4,176.5 377.4,176.5 377.4,176.5 377.4,176.5 377.4,176.5 377.4,176.5 377.4,176.5 377.4,176.5 377.4,176.5 377.4,176.5 377.4,176.5 377.4,176.5 377.4,176.5 377.4,176.5 377.4,176.5 377.4,176.5 377.4,176.5 377.4,176.5 377.4,176.5 377.4,176.5 377.4,176.5 377.4,176.5 377.4,176.5 377.4,176.5 377.4,176.5" fill="none" stroke="#f97316" stroke-width="2.5"/>
<rect x="235" y="534" width="16" height="16" fill="#f97316"/>
<text x="258" y="547" class="legend">worker_2</text>
<text x="85" y="512" class="axis">17:20:39</text>
<text x="945" y="512" text-anchor="end" class="axis">17:25:39</text>
</svg>