<svg xmlns="http://www.w3.org/2000/svg" width="920" height="540" viewBox="0 0 920 540">
<rect width="100%" height="100%" fill="white"/>
<style>text{font-family:Arial,sans-serif;fill:#111827}.title{font-size:22px;font-weight:700}.axis{font-size:12px}.legend{font-size:13px}.label{font-size:12px}</style>
<text x="460.0" y="34" text-anchor="middle" class="title">Average System Utilization During Scheduler Runs</text>
<text x="22" y="257.5" transform="rotate(-90 22 257.5)" class="axis">percent</text>
<line x1="80" y1="445.0" x2="890" y2="445.0" stroke="#e5e7eb"/>
<text x="70" y="449.0" text-anchor="end" class="axis">0.0</text>
<line x1="80" y1="370.0" x2="890" y2="370.0" stroke="#e5e7eb"/>
<text x="70" y="374.0" text-anchor="end" class="axis">18.4</text>
<line x1="80" y1="295.0" x2="890" y2="295.0" stroke="#e5e7eb"/>
<text x="70" y="299.0" text-anchor="end" class="axis">36.9</text>
<line x1="80" y1="220.0" x2="890" y2="220.0" stroke="#e5e7eb"/>
<text x="70" y="224.0" text-anchor="end" class="axis">55.3</text>
<line x1="80" y1="145.0" x2="890" y2="145.0" stroke="#e5e7eb"/>
<text x="70" y="149.0" text-anchor="end" class="axis">73.8</text>
<line x1="80" y1="70.0" x2="890" y2="70.0" stroke="#e5e7eb"/>
<text x="70" y="74.0" text-anchor="end" class="axis">92.2</text>
<line x1="80" y1="445" x2="890" y2="445" stroke="#374151"/>
<line x1="80" y1="70" x2="80" y2="445" stroke="#374151"/>
<rect x="101.5" y="383.4" width="52.8" height="61.6" fill="#2563eb"/>
<text x="127.9" y="378.4" text-anchor="middle" class="label">15.1</text>
<rect x="304.0" y="427.3" width="52.8" height="17.7" fill="#2563eb"/>
<text x="330.4" y="422.3" text-anchor="middle" class="label">4.4</text>
<rect x="506.5" y="426.7" width="52.8" height="18.3" fill="#2563eb"/>
<text x="532.9" y="421.7" text-anchor="middle" class="label">4.5</text>
<rect x="709.0" y="426.6" width="52.8" height="18.4" fill="#2563eb"/>
<text x="735.4" y="421.6" text-anchor="middle" class="label">4.5</text>
<rect x="162.8" y="127.2" width="52.8" height="317.8" fill="#f97316"/>
<text x="189.2" y="122.2" text-anchor="middle" class="label">78.2</text>
<rect x="365.3" y="394.8" width="52.8" height="50.2" fill="#f97316"/>
<text x="391.7" y="389.8" text-anchor="middle" class="label">12.3</text>
<rect x="567.8" y="394.8" width="52.8" height="50.2" fill="#f97316"/>
<text x="594.2" y="389.8" text-anchor="middle" class="label">12.4</text>
<rect x="770.3" y="394.5" width="52.8" height="50.5" fill="#f97316"/>
<text x="796.7" y="389.5" text-anchor="middle" class="label">12.4</text>
<text x="181.2" y="488" text-anchor="middle" class="axis">1 worker broker</text>
<text x="383.8" y="488" text-anchor="middle" class="axis">1 worker worker_1</text>
<text x="586.2" y="488" text-anchor="middle" class="axis">2 workers worker_1</text>
<text x="788.8" y="488" text-anchor="middle" class="axis">2 workers worker_2</text>
<rect x="80" y="515" width="16" height="16" fill="#2563eb"/>
<text x="103" y="528" class="legend">CPU</text>
<rect x="255" y="515" width="16" height="16" fill="#f97316"/>
<text x="278" y="528" class="legend">Memory</text>
</svg>