<svg xmlns="http://www.w3.org/2000/svg" width="980" height="560" viewBox="0 0 980 560">
<rect width="100%" height="100%" fill="white"/>
<style>text{font-family:Arial,sans-serif;fill:#111827}.title{font-size:22px;font-weight:700}.axis{font-size:12px}.legend{font-size:13px}.label{font-size:12px}</style>
<text x="490.0" y="35" text-anchor="middle" class="title">2-Worker Network Bandwidth Over Time</text>
<text x="24" y="272.5" transform="rotate(-90 24 272.5)" class="axis">receive + send Mbps</text>
<line x1="85" y1="475.0" x2="945" y2="475.0" stroke="#e5e7eb"/>
<text x="75" y="479.0" text-anchor="end" class="axis">0.0</text>
<line x1="85" y1="394.0" x2="945" y2="394.0" stroke="#e5e7eb"/>
<text x="75" y="398.0" text-anchor="end" class="axis">0.1</text>
<line x1="85" y1="313.0" x2="945" y2="313.0" stroke="#e5e7eb"/>
<text x="75" y="317.0" text-anchor="end" class="axis">0.2</text>
<line x1="85" y1="232.0" x2="945" y2="232.0" stroke="#e5e7eb"/>
<text x="75" y="236.0" text-anchor="end" class="axis">0.3</text>
<line x1="85" y1="151.0" x2="945" y2="151.0" stroke="#e5e7eb"/>
<text x="75" y="155.0" text-anchor="end" class="axis">0.4</text>
<line x1="85" y1="70.0" x2="945" y2="70.0" stroke="#e5e7eb"/>
<text x="75" y="74.0" text-anchor="end" class="axis">0.5</text>
<line x1="85" y1="475" x2="945" y2="475" stroke="#374151"/>
<line x1="85" y1="70" x2="85" y2="475" stroke="#374151"/>
<polyline points="85.0,475.0 85.0,475.0 85.0,475.0 85.0,475.0 85.0,475.0 85.0,475.0 85.0,475.0 85.0,475.0 85.0,475.0 85.0,475.0 85.0,475.0 85.0,475.0 85.0,475.0 85.0,475.0 85.0,475.0 85.0,475.0 85.0,475.0 85.0,475.0 85.0,475.0 85.0,475.0 119.4,307.2 119.4,307.2 119.4,307.2 119.4,307.2 119.4,307.2 119.4,307.2 119.4,307.2 119.4,307.2 119.4,307.2 119.4,307.2 119.4,307.2 119.4,307.2 119.4,307.2 119.4,307.2 119.4,307.2 119.4,307.2 119.4,307.2 119.4,307.2 119.4,307.2 119.4,307.2 119.4,307.2 119.4,307.2 119.4,307.2 119.4,307.2 119.4,307.2 119.4,307.2 119.4,307.2 119.4,307.2 119.4,307.2 119.4,307.2 119.4,307.2 119.4,307.2 119.4,307.2 119.4,307.2 119.4,307.2 119.4,307.2 119.4,307.2 119.4,307.2 119.4,307.2 119.4,307.2 119.4,307.2 119.4,307.2 119.4,307.2 119.4,307.2 119.4,307.2 119.4,307.2 119.4,307.2 119.4,307.2 119.4,307.2 119.4,307.2 119.4,307.2 119.4,307.2 119.4,307.2 119.4,307.2 119.4,307.2 119.4,307.2 119.4,307.2 119.4,307.2 119.4,307.2 119.4,307.2 876.2,475.0 876.2,475.0 876.2,475.0 876.2,475.0 876.2,475.0 876.2,475.0 876.2,475.0 876.2,475.0 876.2,475.0 876.2,475.0 876.2,475.0 876.2,475.0 876.2,475.0 876.2,475.0 876.2,475.0 876.2,475.0 876.2,475.0 876.2,475.0 876.2,475.0 876.2,475.0 876.2,475.0 876.2,475.0 876.2,475.0 876.2,475.0 876.2,475.0 876.2,475.0 876.2,475.0 876.2,475.0 876.2,475.0 876.2,475.0 876.2,475.0 876.2,475.0 876.2,475.0 876.2,475.0 876.2,475.0 876.2,475.0 910.6,147.0 910.6,147.0 910.6,147.0 910.6,147.0 910.6,147.0 910.6,147.0 910.6,147.0 910.6,147.0 910.6,147.0 910.6,147.0 910.6,147.0 910.6,147.0 910.6,147.0 910.6,147.0 910.6,147.0 910.6,147.0 910.6,147.0 910.6,147.0 910.6,147.0 910.6,147.0 910.6,147.0 910.6,147.0 910.6,147.0 910.6,147.0 910.6,147.0 910.6,147.0 910.6,147.0 910.6,147.0 910.6,147.0 910.6,147.0 910.6,147.0 910.6,147.0 910.6,147.0 910.6,147.0 910.6,147.0 910.6,147.0 910.6,147.0 910.6,147.0 910.6,147.0 910.6,147.0 910.6,147.0 910.6,147.0 910.6,147.0 910.6,147.0 910.6,147.0 910.6,147.0 910.6,147.0 910.6,147.0 910.6,147.0 910.6,147.0 910.6,147.0 910.6,147.0 910.6,147.0 910.6,147.0 910.6,147.0 910.6,147.0 910.6,147.0 910.6,147.0 910.6,147.0 910.6,147.0 910.6,147.0 910.6,147.0 910.6,147.0 910.6,147.0 910.6,147.0 910.6,147.0 910.6,147.0 910.6,147.0 910.6,147.0 910.6,147.0 910.6,147.0 910.6,147.0 910.6,147.0 910.6,147.0 910.6,147.0 910.6,147.0 910.6,147.0 910.6,147.0 910.6,147.0 910.6,147.0 945.0,238.6 945.0,238.6 945.0,238.6 945.0,238.6 945.0,238.6 945.0,238.6 945.0,238.6 945.0,238.6 945.0,238.6 945.0,238.6 945.0,238.6 945.0,238.6 945.0,238.6 945.0,238.6 945.0,238.6 945.0,238.6 945.0,238.6 945.0,238.6 945.0,238.6 945.0,238.6" fill="none" stroke="#2563eb" stroke-width="2.5"/>
<rect x="85" y="534" width="16" height="16" fill="#2563eb"/>
<text x="108" y="547" class="legend">worker_1</text>
<polyline points="136.6,322.5 136.6,322.5 136.6,322.5 136.6,322.5 136.6,322.5 136.6,322.5 136.6,322.5 136.6,322.5 136.6,322.5 136.6,322.5 136.6,322.5 136.6,322.5 136.6,322.5 136.6,322.5 136.6,322.5 136.6,322.5 136.6,322.5 136.6,322.5 136.6,322.5 136.6,322.5 136.6,322.5 136.6,322.5 136.6,322.5 136.6,322.5 136.6,322.5 136.6,322.5 136.6,322.5 136.6,322.5 136.6,322.5 136.6,322.5 136.6,322.5 136.6,322.5 136.6,322.5 136.6,322.5 136.6,322.5 136.6,322.5 136.6,322.5 136.6,322.5 136.6,322.5 136.6,322.5 136.6,322.5 136.6,322.5 136.6,322.5 136.6,322.5 136.6,322.5 136.6,322.5 136.6,322.5 136.6,322.5 136.6,322.5 136.6,322.5 136.6,322.5 136.6,322.5 136.6,322.5 136.6,322.5 136.6,322.5 136.6,322.5 136.6,322.5 136.6,322.5 136.6,322.5 136.6,322.5 136.6,322.5 136.6,322.5 136.6,322.5 136.6,322.5 136.6,322.5 136.6,322.5 136.6,322.5 136.6,322.5 136.6,322.5 136.6,322.5 136.6,322.5 136.6,322.5 136.6,322.5 136.6,322.5 136.6,322.5 136.6,322.5 136.6,322.5 136.6,322.5 136.6,322.5 136.6,322.5 136.6,322.5 136.6,322.5 136.6,322.5 136.6,322.5 136.6,322.5 136.6,322.5 136.6,322.5 136.6,322.5 136.6,322.5 136.6,322.5 136.6,322.5 136.6,322.5 136.6,322.5 136.6,322.5 136.6,322.5 136.6,322.5 136.6,322.5 136.6,322.5 136.6,322.5 136.6,322.5 136.6,322.5 136.6,322.5 136.6,322.5 136.6,322.5 136.6,322.5 136.6,322.5 136.6,322.5 136.6,322.5 136.6,322.5 136.6,322.5 136.6,322.5 136.6,322.5 136.6,322.5 136.6,322.5 136.6,322.5 136.6,322.5 136.6,322.5 136.6,322.5 136.6,322.5 136.6,322.5 136.6,322.5 136.6,322.5 136.6,322.5 136.6,322.5 136.6,322.5 136.6,322.5 136.6,322.5 136.6,322.5 136.6,322.5 136.6,322.5 136.6,322.5 136.6,322.5 136.6,322.5 136.6,322.5 136.6,322.5 136.6,322.5 136.6,322.5 136.6,322.5 136.6,322.5 136.6,322.5 171.0,238.6 171.0,238.6 171.0,238.6 171.0,238.6 171.0,238.6 171.0,238.6 171.0,238.6 171.0,238.6 171.0,238.6 171.0,238.6 171.0,238.6 171.0,238.6 171.0,238.6 171.0,238.6 171.0,238.6 171.0,238.6 171.0,238.6 171.0,238.6 171.0,238.6 171.0,238.6 171.0,238.6 171.0,238.6 171.0,238.6 171.0,238.6 171.0,238.6 171.0,238.6 171.0,238.6 171.0,238.6 171.0,238.6 171.0,238.6 171.0,238.6 171.0,238.6 171.0,238.6 171.0,238.6 171.0,238.6 171.0,238.6 171.0,238.6 171.0,238.6 171.0,238.6 171.0,238.6 171.0,238.6 171.0,238.6 171.0,238.6 171.0,238.6 171.0,238.6 171.0,238.6 171.0,238.6 171.0,238.6 171.0,238.6 171.0,238.6 171.0,238.6 171.0,238.6 171.0,238.6 171.0,238.6 171.0,238.6 171.0,238.6 171.0,238.6 171.0,238.6 171.0,238.6 171.0,238.6 171.0,238.6 171.0,238.6 171.0,238.6 171.0,238.6 171.0,238.6 171.0,238.6 171.0,238.6 171.0,238.6 171.0,238.6 171.0,238.6 171.0,238.6 171.0,238.6 171.0,238.6 171.0,238.6 171.0,238.6 171.0,238.6 171.0,238.6 171.0,238.6 171.0,238.6 171.0,238.6 171.0,238.6 171.0,238.6 171.0,238.6 171.0,238.6 171.0,238.6 171.0,238.6 171.0,238.6 171.0,238.6 171.0,238.6 171.0,238.6 171.0,238.6 171.0,238.6 171.0,238.6 171.0,238.6 171.0,238.6 171.0,238.6 171.0,238.6 171.0,238.6 171.0,238.6 171.0,238.6 171.0,238.6 171.0,238.6 171.0,238.6 171.0,238.6 171.0,238.6 171.0,238.6 171.0,238.6 171.0,238.6 171.0,238.6 171.0,238.6 171.0,238.6 171.0,238.6 171.0,238.6 171.0,238.6 171.0,238.6 171.0,238.6 171.0,238.6 171.0,238.6 171.0,238.6 171.0,238.6 205.4,314.8 205.4,314.8 205.4,314.8 205.4,314.8 205.4,314.8 205.4,314.8 205.4,314.8 205.4,314.8 205.4,314.8 205.4,314.8 205.4,314.8 205.4,314.8 205.4,314.8 205.4,314.8 205.4,314.8 205.4,314.8 205.4,314.8 205.4,314.8 205.4,314.8 205.4,314.8 205.4,314.8 205.4,314.8 205.4,314.8 205.4,314.8 205.4,314.8 205.4,314.8 205.4,314.8 205.4,314.8 205.4,314.8 205.4,314.8 205.4,314.8 205.4,314.8 205.4,314.8 205.4,314.8 205.4,314.8 205.4,314.8 205.4,314.8 205.4,314.8 205.4,314.8 205.4,314.8 205.4,314.8 205.4,314.8 205.4,314.8 205.4,314.8 205.4,314.8 205.4,314.8 205.4,314.8 205.4,314.8 205.4,314.8 205.4,314.8 205.4,314.8 205.4,314.8 205.4,314.8 205.4,314.8 205.4,314.8 205.4,314.8 205.4,314.8 205.4,314.8 205.4,314.8 205.4,314.8 205.4,314.8 205.4,314.8 205.4,314.8 205.4,314.8 205.4,314.8 205.4,314.8 205.4,314.8 205.4,314.8 205.4,314.8 205.4,314.8 205.4,314.8 205.4,314.8 205.4,314.8 205.4,314.8 205.4,314.8 205.4,314.8 205.4,314.8 205.4,314.8 205.4,314.8 205.4,314.8 205.4,314.8 205.4,314.8 205.4,314.8 205.4,314.8 205.4,314.8 205.4,314.8 205.4,314.8 205.4,314.8 205.4,314.8 205.4,314.8 205.4,314.8 205.4,314.8 205.4,314.8 205.4,314.8 205.4,314.8 205.4,314.8 205.4,314.8 205.4,314.8 205.4,314.8 205.4,314.8 205.4,314.8 205.4,314.8 205.4,314.8 205.4,314.8 205.4,314.8 205.4,314.8 205.4,314.8 205.4,314.8 205.4,314.8 205.4,314.8 205.4,314.8 205.4,314.8 205.4,314.8 205.4,314.8 205.4,314.8 205.4,314.8 205.4,314.8 205.4,314.8 205.4,314.8 205.4,314.8 239.8,238.6 239.8,238.6 239.8,238.6 239.8,238.6 239.8,238.6 239.8,238.6 239.8,238.6 239.8,238.6 239.8,238.6 239.8,238.6 239.8,238.6 239.8,238.6 239.8,238.6 239.8,238.6 239.8,238.6 239.8,238.6 239.8,238.6 239.8,238.6 239.8,238.6 239.8,238.6 239.8,238.6 239.8,238.6 239.8,238.6 239.8,238.6 239.8,238.6 239.8,238.6 239.8,238.6 239.8,238.6 239.8,238.6 239.8,238.6 239.8,238.6 239.8,238.6 239.8,238.6 239.8,238.6 239.8,238.6 239.8,238.6 239.8,238.6 239.8,238.6 239.8,238.6 239.8,238.6 239.8,238.6 239.8,238.6 239.8,238.6 239.8,238.6 239.8,238.6 239.8,238.6 239.8,238.6 239.8,238.6 239.8,238.6 239.8,238.6 239.8,238.6 239.8,238.6 239.8,238.6 239.8,238.6 239.8,238.6 239.8,238.6 239.8,238.6 239.8,238.6 239.8,238.6 239.8,238.6 239.8,238.6 239.8,238.6 239.8,238.6 239.8,238.6 239.8,238.6 239.8,238.6 239.8,238.6 239.8,238.6 239.8,238.6 239.8,238.6 239.8,238.6 239.8,238.6 239.8,238.6 239.8,238.6 239.8,238.6 239.8,238.6 239.8,238.6 239.8,238.6 239.8,238.6 239.8,238.6 239.8,238.6 239.8,238.6 239.8,238.6 239.8,238.6 239.8,238.6 239.8,238.6 239.8,238.6 239.8,238.6 239.8,238.6 239.8,238.6 239.8,238.6 239.8,238.6 239.8,238.6 239.8,238.6 239.8,238.6 239.8,238.6 239.8,238.6 239.8,238.6 239.8,238.6 239.8,238.6 239.8,238.6 239.8,238.6 239.8,238.6 239.8,238.6 239.8,238.6 239.8,238.6 239.8,238.6 239.8,238.6 239.8,238.6 239.8,238.6 274.2,238.6 274.2,238.6 274.2,238.6 274.2,238.6 274.2,238.6 274.2,238.6 274.2,238.6 274.2,238.6 274.2,238.6 274.2,238.6 274.2,238.6 274.2,238.6 274.2,238.6 274.2,238.6 274.2,238.6 274.2,238.6 274.2,238.6 274.2,238.6 274.2,238.6 274.2,238.6 274.2,238.6 274.2,238.6 274.2,238.6 274.2,238.6 274.2,238.6 274.2,238.6 274.2,238.6 274.2,238.6 274.2,238.6 274.2,238.6 274.2,238.6 274.2,238.6 274.2,238.6 274.2,238.6 274.2,238.6 274.2,238.6 274.2,238.6 274.2,238.6 274.2,238.6 274.2,238.6 274.2,238.6 274.2,238.6 274.2,238.6 274.2,238.6 274.2,238.6 274.2,238.6 274.2,238.6 274.2,238.6 274.2,238.6 274.2,238.6 274.2,238.6 274.2,238.6 274.2,238.6 274.2,238.6 274.2,238.6 274.2,238.6 274.2,238.6 274.2,238.6 274.2,238.6 274.2,238.6 274.2,238.6 274.2,238.6 274.2,238.6 274.2,238.6 274.2,238.6 274.2,238.6 274.2,238.6 274.2,238.6 274.2,238.6 274.2,238.6 274.2,238.6 274.2,238.6 274.2,238.6 274.2,238.6 274.2,238.6 274.2,238.6 274.2,238.6 274.2,238.6 274.2,238.6 274.2,238.6 274.2,238.6 274.2,238.6 274.2,238.6 274.2,238.6 274.2,238.6 274.2,238.6 274.2,238.6 274.2,238.6 274.2,238.6 274.2,238.6 274.2,238.6 274.2,238.6 274.2,238.6 274.2,238.6 274.2,238.6 274.2,238.6 274.2,238.6 274.2,238.6 274.2,238.6 274.2,238.6 274.2,238.6 274.2,238.6 274.2,238.6 274.2,238.6 274.2,238.6 274.2,238.6 274.2,238.6 274.2,238.6 274.2,238.6 274.2,238.6 308.6,147.0 308.6,147.0 308.6,147.0 308.6,147.0 308.6,147.0 308.6,147.0 308.6,147.0 308.6,147.0 308.6,147.0 308.6,147.0 308.6,147.0 308.6,147.0 308.6,147.0 308.6,147.0 308.6,147.0 308.6,147.0 308.6,147.0 308.6,147.0 308.6,147.0 308.6,147.0 308.6,147.0 308.6,147.0 308.6,147.0 308.6,147.0 308.6,147.0 308.6,147.0 308.6,147.0 308.6,147.0 308.6,147.0 308.6,147.0 308.6,147.0 308.6,147.0 308.6,147.0 308.6,147.0 308.6,147.0 308.6,147.0 308.6,147.0 308.6,147.0 308.6,147.0 308.6,147.0 308.6,147.0 308.6,147.0 308.6,147.0 308.6,147.0 308.6,147.0 308.6,147.0 308.6,147.0 308.6,147.0 308.6,147.0 308.6,147.0 308.6,147.0 308.6,147.0 308.6,147.0 308.6,147.0 308.6,147.0 308.6,147.0 308.6,147.0 308.6,147.0 308.6,147.0 308.6,147.0 308.6,147.0 308.6,147.0 308.6,147.0 308.6,147.0 308.6,147.0 308.6,147.0 308.6,147.0 308.6,147.0 308.6,147.0 308.6,147.0 308.6,147.0 308.6,147.0 308.6,147.0 308.6,147.0 308.6,147.0 308.6,147.0 308.6,147.0 308.6,147.0 308.6,147.0 308.6,147.0 308.6,147.0 308.6,147.0 308.6,147.0 308.6,147.0 308.6,147.0 308.6,147.0 308.6,147.0 308.6,147.0 308.6,147.0 308.6,147.0 308.6,147.0 308.6,147.0 308.6,147.0 308.6,147.0 308.6,147.0 308.6,147.0 308.6,147.0 308.6,147.0 308.6,147.0 308.6,147.0 308.6,147.0 308.6,147.0 308.6,147.0 308.6,147.0 308.6,147.0 308.6,147.0 308.6,147.0 308.6,147.0 308.6,147.0 308.6,147.0 308.6,147.0 308.6,147.0 308.6,147.0 308.6,147.0 308.6,147.0 308.6,147.0 308.6,147.0 308.6,147.0 308.6,147.0 308.6,147.0 343.0,131.8 343.0,131.8 343.0,131.8 343.0,131.8 343.0,131.8 343.0,131.8 343.0,131.8 343.0,131.8 343.0,131.8 343.0,131.8 343.0,131.8 343.0,131.8 343.0,131.8 343.0,131.8 343.0,131.8 343.0,131.8 343.0,131.8 343.0,131.8 343.0,131.8 343.0,131.8 343.0,131.8 343.0,131.8 343.0,131.8 343.0,131.8 343.0,131.8 343.0,131.8 343.0,131.8 343.0,131.8 343.0,131.8 343.0,131.8 343.0,131.8 343.0,131.8 343.0,131.8 343.0,131.8 343.0,131.8 343.0,131.8 343.0,131.8 343.0,131.8 343.0,131.8 343.0,131.8 343.0,131.8 343.0,131.8 343.0,131.8 343.0,131.8 343.0,131.8 343.0,131.8 343.0,131.8 343.0,131.8 343.0,131.8 343.0,131.8 343.0,131.8 343.0,131.8 343.0,131.8 343.0,131.8 343.0,131.8 343.0,131.8 343.0,131.8 343.0,131.8 343.0,131.8 343.0,131.8 343.0,131.8 343.0,131.8 343.0,131.8 343.0,131.8 343.0,131.8 343.0,131.8 343.0,131.8 343.0,131.8 343.0,131.8 343.0,131.8 343.0,131.8 343.0,131.8 343.0,131.8 343.0,131.8 343.0,131.8 343.0,131.8 343.0,131.8 343.0,131.8 343.0,131.8 343.0,131.8 343.0,131.8 343.0,131.8 343.0,131.8 343.0,131.8 343.0,131.8 343.0,131.8 343.0,131.8 343.0,131.8 343.0,131.8 343.0,131.8 343.0,131.8 343.0,131.8 343.0,131.8 343.0,131.8 343.0,131.8 343.0,131.8 343.0,131.8 343.0,131.8 343.0,131.8 343.0,131.8 377.4,169.9 377.4,169.9 377.4,169.9 377.4,169.9 377.4,169.9 377.4,169.9 377.4,169.9 377.4,169.9 377.4,169.9 377.4,169.9 377.4,169.9 377.4,169.9 377.4,169.9 377.4,169.9 377.4,169.9 377.4,169.9 377.4,169.9 377.4,169.9 377.4,169.9 377.4,169.9 377.4,169.9 377.4,169.9 377.4,169.9 377.4,169.9 377.4,169.9 377.4,169.9 377.4,169.9 377.4,169.9 377.4,169.9 377.4,169.9 377.4,169.9 377.4,169.9 377.4,169.9 377.4,169.9 377.4,169.9 377.4,169.9 377.4,169.9 377.4,169.9 377.4,169.9 377.4,169.9 377.4,169.9 377.4,169.9 377.4,169.9 377.4,169.9 377.4,169.9 377.4,169.9 377.4,169.9 377.4,169.9 377.4,169.9 377.4,169.9 377.4,169.9 377.4,169.9 377.4,169.9 377.4,169.9 377.4,169.9 377.4,169.9 377.4,169.9 377.4,169.9 377.4,169.9 377.4,169.9 377.4,169.9 377.4,169.9 377.4,169.9 377.4,169.9 377.4,169.9 377.4,169.9 377.4,169.9 377.4,169.9 377.4,169.9 377.4,169.9 377.4,169.9 377.4,169.9 377.4,169.9 377.4,169.9 377.4,169.9 377.4,169.9 377.4,169.9 377.4,169.9 377.4,169.9 377.4,169.9 377.4,169.9 377.4,169.9 377.4,169.9 377.4,169.9 377.4,169.9 377.4,169.9 377.4,169.9 377.4,169.9 377.4,169.9 377.4,169.9 377.4,169.9 377.4,169.9 377.4,169.9 377.4,169.9 377.4,169.9 377.4,169.9 377.4,169.9 377.4,169.9 377.4,169.9 377.4,169.9" fill="none" stroke="#f97316" stroke-width="2.5"/>
<rect x="235" y="534" width="16" height="16" fill="#f97316"/>
<text x="258" y="547" class="legend">worker_2</text>
<text x="85" y="512" class="axis">17:20:39</text>
<text x="945" y="512" text-anchor="end" class="axis">17:25:39</text>
</svg>