<svg xmlns="http://www.w3.org/2000/svg" width="920" height="540" viewBox="0 0 920 540">
<rect width="100%" height="100%" fill="white"/>
<style>text{font-family:Arial,sans-serif;fill:#111827}.title{font-size:22px;font-weight:700}.axis{font-size:12px}.legend{font-size:13px}.label{font-size:12px}</style>
<text x="460.0" y="34" text-anchor="middle" class="title">Cloud Scheduler Training Progress</text>
<line x1="75" y1="460.0" x2="885" y2="460.0" stroke="#e5e7eb"/>
<text x="65" y="464.0" text-anchor="end" class="axis">0.0</text>
<line x1="75" y1="382.0" x2="885" y2="382.0" stroke="#e5e7eb"/>
<text x="65" y="386.0" text-anchor="end" class="axis">0.2</text>
<line x1="75" y1="304.0" x2="885" y2="304.0" stroke="#e5e7eb"/>
<text x="65" y="308.0" text-anchor="end" class="axis">0.4</text>
<line x1="75" y1="226.0" x2="885" y2="226.0" stroke="#e5e7eb"/>
<text x="65" y="230.0" text-anchor="end" class="axis">0.6</text>
<line x1="75" y1="148.0" x2="885" y2="148.0" stroke="#e5e7eb"/>
<text x="65" y="152.0" text-anchor="end" class="axis">0.8</text>
<line x1="75" y1="70.0" x2="885" y2="70.0" stroke="#e5e7eb"/>
<text x="65" y="74.0" text-anchor="end" class="axis">1.0</text>
<line x1="75" y1="460" x2="885" y2="460" stroke="#374151"/>
<line x1="75" y1="70" x2="75" y2="460" stroke="#374151"/>
<polyline points="75.0,263.2 93.4,243.8 111.8,239.4 130.2,231.5 148.6,224.4 167.0,217.3 185.5,215.6 203.9,212.1 222.3,205.0 240.7,196.2 259.1,190.9 277.5,178.5 295.9,163.5 314.3,153.8 332.7,148.5 351.1,139.7 369.5,134.4 388.0,129.1 406.4,121.2 424.8,115.9 443.2,110.6 461.6,103.5 480.0,102.6 498.4,100.9 516.8,98.2 535.2,97.3 553.6,92.1 572.0,90.3 590.5,90.3 608.9,90.3 627.3,90.3 645.7,89.4 664.1,89.4 682.5,89.4 700.9,90.3 719.3,89.4 737.7,89.4 756.1,87.6 774.5,87.6 793.0,87.6 811.4,85.9 829.8,85.0 848.2,85.0 866.6,85.0 885.0,83.2" fill="none" stroke="#2563eb" stroke-width="3"/>
<polyline points="75.0,263.2 93.4,249.2 111.8,245.7 130.2,245.7 148.6,245.7 167.0,242.1 185.5,238.6 203.9,235.1 222.3,228.1 240.7,217.6 259.1,200.0 277.5,178.9 295.9,168.4 314.3,154.3 332.7,154.3 351.1,140.3 369.5,133.3 388.0,133.3 406.4,129.7 424.8,126.2 443.2,126.2 461.6,122.7 480.0,122.7 498.4,119.2 516.8,115.7 535.2,108.6 553.6,105.1 572.0,105.1 590.5,105.1 608.9,105.1 627.3,105.1 645.7,105.1 664.1,105.1 682.5,105.1 700.9,101.6 719.3,101.6 737.7,94.6 756.1,101.6 774.5,101.6 793.0,98.1 811.4,98.1 829.8,98.1 848.2,98.1 866.6,98.1 885.0,94.6" fill="none" stroke="#f97316" stroke-width="3"/>
<text x="480.0" y="506" text-anchor="middle" class="axis">epoch</text>
<rect x="75" y="516" width="16" height="16" fill="#2563eb"/>
<text x="98" y="529" class="legend">Train accuracy</text>
<rect x="255" y="516" width="16" height="16" fill="#f97316"/>
<text x="278" y="529" class="legend">Test accuracy</text>
</svg>